<svg xmlns="http://www.w3.org/2000/svg" viewBox="0 0 68.52 73.45"><defs><style>.cls-1{fill:#2ed9c3;}</style></defs><title>Asset 13</title><g id="Layer_2" data-name="Layer 2"><g id="Layer_1-2" data-name="Layer 1"><polygon class="cls-1" points="62.49 54.58 62.49 21.97 34.26 38.27 34.26 70.88 62.49 54.58"/><path d="M34.26,73.45,3.8,55.86V20.69L34.26,3.1,64.72,20.69V55.86Zm-26-20.16,26,15,26-15v-30l-26-15-26,15Z"/><line x1="67.41" y1="57.41" x2="62.49" y2="54.58"/><rect x="62.72" y="53.16" width="4.45" height="5.67" transform="translate(-16.02 84.24) rotate(-60)"/><line x1="34.26" y1="38.27" x2="6.03" y2="21.97"/><rect x="17.92" y="13.82" width="4.45" height="32.6" transform="translate(-16.02 32.51) rotate(-60)"/><line x1="62.49" y1="21.97" x2="34.26" y2="38.27"/><rect x="32.08" y="27.9" width="32.6" height="4.45" transform="translate(-8.58 28.22) rotate(-29.99)"/><line x1="6.03" y1="54.58" x2="1.11" y2="57.41"/><rect x="0.73" y="53.77" width="5.67" height="4.45" transform="translate(-27.51 9.28) rotate(-29.99)"/><line x1="34.26" x2="34.26" y2="5.67"/><rect x="32.03" width="4.45" height="5.67"/><line x1="34.26" y1="38.27" x2="34.26" y2="70.88"/><rect x="32.03" y="38.27" width="4.45" height="32.6"/></g></g></svg>