<svg xmlns="http://www.w3.org/2000/svg" viewBox="0 0 122.53 175.34"><defs><style>.cls-1{fill:#fff;}.cls-2{fill:#2ed9c3;}</style></defs><title>Asset 17</title><g id="Layer_2" data-name="Layer 2"><g id="Layer_1-2" data-name="Layer 1"><polygon class="cls-1" points="0 0 0 35.17 0.23 35.17 0.23 140.16 0 140.16 0 175.34 122.53 175.34 122.53 140.26 122.53 140.16 122.53 35.17 122.53 34.65 122.53 0 0 0"/><polygon class="cls-2" points="89.61 86.12 89.61 53.52 61.38 69.82 61.38 102.42 89.61 86.12"/><path d="M61.38,105,30.92,87.4V52.23L61.38,34.64,91.84,52.23V87.4Zm-26-20.16,26,15,26-15v-30l-26-15-26,15Z"/><line x1="94.53" y1="88.95" x2="89.61" y2="86.12"/><rect x="89.84" y="84.7" width="4.45" height="5.67" transform="translate(-29.77 123.5) rotate(-60)"/><line x1="61.38" y1="69.82" x2="33.15" y2="53.52"/><rect x="45.04" y="45.37" width="4.45" height="32.6" transform="translate(-29.77 71.76) rotate(-60)"/><line x1="89.61" y1="53.52" x2="61.38" y2="69.82"/><rect x="59.2" y="59.44" width="32.6" height="4.45" transform="translate(-20.72 46) rotate(-29.99)"/><line x1="33.15" y1="86.12" x2="28.23" y2="88.95"/><rect x="27.85" y="85.31" width="5.67" height="4.45" transform="translate(-39.65 27.06) rotate(-29.99)"/><line x1="61.38" y1="31.54" x2="61.38" y2="37.22"/><rect x="59.15" y="31.54" width="4.45" height="5.67"/><line x1="61.38" y1="69.82" x2="61.38" y2="102.42"/><rect x="59.15" y="69.82" width="4.45" height="32.6"/><path d="M34.66,124.62V140.4H30.84V124.62Z"/><path d="M51.31,140.4H47.49l-6.38-9.69v9.69H37.29V124.62h3.82l6.38,9.77v-9.77h3.82Z"/><path d="M57.76,124.62V140.4H53.94V124.62Z"/><path d="M73.12,124.49a4.12,4.12,0,0,1,1.79,1.57,4.17,4.17,0,0,1,.62,2.24,3.76,3.76,0,0,1-.79,2.48,3.45,3.45,0,0,1-2,1.18v.11q3.06,1,3.06,3.82a4.62,4.62,0,0,1-.63,2.42A4.12,4.12,0,0,1,73.37,140a6.29,6.29,0,0,1-2.86.6,6.51,6.51,0,0,1-4.32-1.34,5.37,5.37,0,0,1-1.73-4.09h3.72a2.6,2.6,0,0,0,.58,1.65,2,2,0,0,0,1.57.61,1.68,1.68,0,0,0,1.78-1.77c0-1.29-.94-1.94-2.81-1.94h-.71v-3.1h.69c1.68,0,2.52-.58,2.52-1.81a1.67,1.67,0,0,0-.44-1.24,1.58,1.58,0,0,0-1.17-.43,1.6,1.6,0,0,0-1.27.54,2.52,2.52,0,0,0-.54,1.46H64.66a5.3,5.3,0,0,1,1.56-3.84,5.78,5.78,0,0,1,4.06-1.33A6.66,6.66,0,0,1,73.12,124.49Z"/><path d="M90.85,136.59A7,7,0,0,1,88,139.4a9.24,9.24,0,0,1-4.39,1h-6V124.62h6a9.19,9.19,0,0,1,4.4,1,6.86,6.86,0,0,1,2.85,2.77,9,9,0,0,1,0,8.22Zm-4.11-.79a5.08,5.08,0,0,0,0-6.65A4.82,4.82,0,0,0,83.27,128H81.46v9h1.81A4.82,4.82,0,0,0,86.74,135.8Z"/></g></g></svg>