<svg xmlns="http://www.w3.org/2000/svg" viewBox="0 0 68.52 109.01"><defs><style>.cls-1{fill:#fff;}</style></defs><title>Asset 16</title><g id="Layer_2" data-name="Layer 2"><g id="Layer_1-2" data-name="Layer 1"><path class="cls-1" d="M34.26,73.45,3.8,55.86V20.69L34.26,3.1,64.72,20.69V55.86Zm-26-20.16,26,15,26-15v-30l-26-15-26,15Z"/><line class="cls-1" x1="67.41" y1="57.41" x2="62.49" y2="54.58"/><rect class="cls-1" x="62.72" y="53.16" width="4.45" height="5.67" transform="translate(-16.02 84.24) rotate(-60)"/><line class="cls-1" x1="34.26" y1="38.27" x2="6.03" y2="21.97"/><rect class="cls-1" x="17.92" y="13.82" width="4.45" height="32.6" transform="translate(-16.02 32.51) rotate(-60)"/><line class="cls-1" x1="62.49" y1="21.97" x2="34.26" y2="38.27"/><rect class="cls-1" x="32.08" y="27.9" width="32.6" height="4.45" transform="translate(-8.58 28.22) rotate(-29.99)"/><line class="cls-1" x1="6.03" y1="54.58" x2="1.11" y2="57.41"/><rect class="cls-1" x="0.73" y="53.77" width="5.67" height="4.45" transform="translate(-27.51 9.28) rotate(-29.99)"/><line class="cls-1" x1="34.26" x2="34.26" y2="5.67"/><rect class="cls-1" x="32.03" width="4.45" height="5.67"/><line class="cls-1" x1="34.26" y1="38.27" x2="34.26" y2="70.88"/><rect class="cls-1" x="32.03" y="38.27" width="4.45" height="32.6"/><path class="cls-1" d="M7.54,93.07v15.79H3.72V93.07Z"/><path class="cls-1" d="M24.19,108.86H20.37L14,99.17v9.69H10.17V93.07H14l6.38,9.78V93.07h3.82Z"/><path class="cls-1" d="M30.64,93.07v15.79H26.82V93.07Z"/><path class="cls-1" d="M46,93a4.16,4.16,0,0,1,1.79,1.56,4.2,4.2,0,0,1,.62,2.25,3.78,3.78,0,0,1-.79,2.48,3.45,3.45,0,0,1-2,1.18v.11q3.06,1,3.06,3.82a4.65,4.65,0,0,1-.63,2.42,4.12,4.12,0,0,1-1.82,1.65,6.29,6.29,0,0,1-2.86.59,6.46,6.46,0,0,1-4.32-1.34,5.36,5.36,0,0,1-1.73-4.08h3.72a2.6,2.6,0,0,0,.58,1.65,2,2,0,0,0,1.57.6A1.67,1.67,0,0,0,45,104.08c0-1.29-.93-1.94-2.81-1.94h-.71V99h.69q2.52,0,2.52-1.8A1.67,1.67,0,0,0,44.25,96a1.62,1.62,0,0,0-1.18-.44,1.57,1.57,0,0,0-1.27.55,2.49,2.49,0,0,0-.54,1.46H37.54a5.29,5.29,0,0,1,1.56-3.84,5.78,5.78,0,0,1,4.06-1.34A6.51,6.51,0,0,1,46,93Z"/><path class="cls-1" d="M63.73,105.05a7,7,0,0,1-2.86,2.8,9.09,9.09,0,0,1-4.39,1h-6V93.07h6a9.19,9.19,0,0,1,4.4,1,6.78,6.78,0,0,1,2.85,2.76,9,9,0,0,1,0,8.23Zm-4.11-.79a5.08,5.08,0,0,0,0-6.65,4.82,4.82,0,0,0-3.47-1.19H54.34v9h1.81A4.82,4.82,0,0,0,59.62,104.26Z"/></g></g></svg>